<svg width="24" height="24" viewBox="0 0 24 24" fill="none" xmlns="http://www.w3.org/2000/svg">
    <path fill-rule="evenodd" clip-rule="evenodd" d="M12.5854 3.5C12.7914 2.91753 13.3472 2.5 14 2.5H16C16.6528 2.5 17.2086 2.91753 17.4146 3.5H19C19.8281 3.5 20.5 4.17186 20.5 5V16C20.5 16.6528 20.0825 17.2086 19.5 17.4146V20.5H20C20.2761 20.5 20.5 20.7239 20.5 21C20.5 21.2761 20.2761 21.5 20 21.5H6C4.61886 21.5 3.5 20.3811 3.5 19V6C3.5 4.61886 4.61886 3.5 6 3.5H12.5854ZM12.5 4.5H8.5V16.5H19C19.2759 16.5 19.5 16.2759 19.5 16V5C19.5 4.72414 19.2759 4.5 19 4.5H17.5V9C17.5 9.17329 17.4103 9.33422 17.2629 9.42533C17.1155 9.51643 16.9314 9.52471 16.7764 9.44721L15 8.55902L13.2236 9.44721C13.0686 9.52471 12.8845 9.51643 12.7371 9.42533C12.5897 9.33422 12.5 9.17329 12.5 9V4.5ZM7.5 16.5V4.5H6C5.17114 4.5 4.5 5.17114 4.5 6V16.9996C4.91778 16.6858 5.4371 16.5 6 16.5H7.5ZM4.5 19C4.5 19.8289 5.17114 20.5 6 20.5H18.5V17.5H6C5.17114 17.5 4.5 18.1711 4.5 19ZM14 3.5C13.7241 3.5 13.5 3.72414 13.5 4V8.19098L14.7764 7.55279C14.9172 7.4824 15.0828 7.4824 15.2236 7.55279L16.5 8.19098V4C16.5 3.72414 16.2759 3.5 16 3.5H14Z"/>
</svg>
