<svg width="24" height="24" viewBox="0 0 24 24" fill="none" xmlns="http://www.w3.org/2000/svg">
    <path fill-rule="evenodd" clip-rule="evenodd" d="M15.9726 5.64656C16.1673 5.45182 16.4837 5.45182 16.6784 5.64656L18.3544 7.32256C18.5492 7.51728 18.5492 7.83368 18.3545 8.02842L18.3544 8.02845L16.7338 9.64881L14.352 7.26707L15.9726 5.64656ZM13.8571 7.76204L5.64655 15.9726L5.64561 15.9735C5.55248 16.0661 5.5 16.1923 5.5 16.325V18.5H7.675C7.80767 18.5 7.93387 18.4475 8.02651 18.3544L8.02748 18.3534L16.2388 10.1437L13.8571 7.76204ZM17.3856 4.93945C16.8003 4.35419 15.8507 4.35419 15.2654 4.93945L4.94039 15.2645L4.93981 15.2651C4.65731 15.5464 4.5 15.9279 4.5 16.325V19C4.5 19.2761 4.72386 19.5 5 19.5H7.675C8.07205 19.5 8.45358 19.3427 8.73488 19.0602L8.73549 19.0596L19.0615 8.73559L19.0616 8.73556C19.6468 8.15029 19.6468 7.20071 19.0616 6.61545L17.3856 4.93945Z" />
</svg>
