<svg width="24" height="24" viewBox="0 0 24 24" fill="none" xmlns="http://www.w3.org/2000/svg">
    <path fill-rule="evenodd" clip-rule="evenodd" d="M3.66285 11.7984C5.58074 8.16418 8.68658 6 12 6C15.3134 6 18.4192 8.16418 20.3371 11.7984C20.4037 11.9245 20.4037 12.0755 20.3371 12.2016C18.4192 15.8358 15.3134 18 12 18C8.68657 18 5.58074 15.8358 3.66285 12.2016C3.59633 12.0755 3.59633 11.9245 3.66285 11.7984ZM12 5C8.21902 5 4.81912 7.46481 2.77844 11.3317C2.55779 11.7498 2.55779 12.2502 2.77844 12.6683C4.81912 16.5352 8.21902 19 12 19C15.781 19 19.1809 16.5352 21.2215 12.6683C21.4422 12.2502 21.4422 11.7498 21.2215 11.3317C19.1809 7.4648 15.781 5 12 5ZM9.34999 12C9.34999 10.5364 10.5364 9.35 12 9.35C13.4635 9.35 14.65 10.5364 14.65 12C14.65 13.4636 13.4635 14.65 12 14.65C10.5364 14.65 9.34999 13.4636 9.34999 12ZM12 8.65C10.1498 8.65 8.64999 10.1498 8.64999 12C8.64999 13.8502 10.1498 15.35 12 15.35C13.8501 15.35 15.35 13.8502 15.35 12C15.35 10.1498 13.8501 8.65 12 8.65Z" />
</svg>
