<svg width="24" height="24" viewBox="0 0 24 24" fill="none" xmlns="http://www.w3.org/2000/svg">
    <path fill-rule="evenodd" clip-rule="evenodd" d="M12 4.177C10.7433 4.177 9.725 5.19603 9.725 6.452C9.725 7.70638 10.7427 8.72517 12.0003 8.727C13.2569 8.72684 14.275 7.70788 14.275 6.452C14.275 5.19526 13.256 4.177 12 4.177ZM11.9993 9.727C11.9991 9.727 11.9996 9.727 11.9993 9.727C13.8086 9.727 15.275 8.26003 15.275 6.452C15.275 4.64274 13.808 3.177 12 3.177C10.1907 3.177 8.725 4.64398 8.725 6.452C8.725 8.25902 10.1903 9.72386 11.9979 9.727" />
    <path fill-rule="evenodd" clip-rule="evenodd" d="M5.275 15.273C4.01826 15.273 3 16.292 3 17.548C3 18.8049 4.01814 19.823 5.275 19.823C6.53143 19.823 7.54916 18.8042 7.55 17.5477M5.275 20.823C3.46586 20.823 2 19.3571 2 17.548C2 15.74 3.46574 14.273 5.275 14.273C7.08302 14.273 8.55 15.7387 8.55 17.548C8.54882 19.3555 7.08456 20.823 5.275 20.823ZM5.275 15.273C6.53087 15.273 7.54982 16.2911 7.55 17.5477Z" />
    <path fill-rule="evenodd" clip-rule="evenodd" d="M18.726 15.273C17.4693 15.273 16.451 16.292 16.451 17.548C16.451 18.805 17.4683 19.823 18.726 19.823C19.9827 19.823 21.001 18.804 21.001 17.548C21.001 16.2913 19.982 15.273 18.726 15.273ZM18.726 20.823C16.9157 20.823 15.451 19.357 15.451 17.548C15.451 15.74 16.9167 14.273 18.726 14.273C20.534 14.273 22.001 15.7387 22.001 17.548C22.001 19.356 20.5353 20.823 18.726 20.823Z" />
    <path fill-rule="evenodd" clip-rule="evenodd" d="M8.75956 11.4989C8.99214 11.6478 9.05999 11.957 8.91111 12.1896L6.90111 15.3296C6.75224 15.5621 6.44301 15.63 6.21044 15.4811C5.97786 15.3322 5.91001 15.023 6.05889 14.7904L8.06889 11.6504C8.21777 11.4179 8.52699 11.35 8.75956 11.4989Z" />
    <path fill-rule="evenodd" clip-rule="evenodd" d="M13.2304 8.35889C13.463 8.21001 13.7722 8.27786 13.9211 8.51044L15.9311 11.6504C16.08 11.883 16.0121 12.1922 15.7796 12.3411C15.547 12.49 15.2378 12.4221 15.0889 12.1896L13.0789 9.04957C12.93 8.81699 12.9979 8.50777 13.2304 8.35889Z" />
    <path fill-rule="evenodd" clip-rule="evenodd" d="M11.5 17.55C11.5 17.2739 11.7239 17.05 12 17.05H15.95C16.2261 17.05 16.45 17.2739 16.45 17.55C16.45 17.8261 16.2261 18.05 15.95 18.05H12C11.7239 18.05 11.5 17.8261 11.5 17.55Z" />
</svg>
