<?xml version="1.0" encoding="utf-8"?><!-- Uploaded to: SVG Repo, www.svgrepo.com, Generator: SVG Repo Mixer Tools -->
<svg xmlns="http://www.w3.org/2000/svg" viewBox="0 0 48 48" id="out-of-stock"><path d="M37.83,26.99c.15,.06,.33,.03,.46-.06,.31-.22,.21,1.25,.21-19.93,0-.83-.67-1.5-1.5-1.5H7c-.83,0-1.5,.67-1.5,1.5v30c0,.83,.67,1.5,1.5,1.5H26.52c.34,0,.59-.34,.47-.67-2.41-6.67,4.15-13.26,10.84-10.84ZM25.19,6.5v7.42l-3.19-1.06-3.19,1.06V6.5h6.38ZM7,37.5c-.28,0-.5-.22-.5-.5V7c0-.28,.22-.5,.5-.5h10.81v7.42c0,.69,.67,1.17,1.32,.95l2.88-.96c3.04,1.01,2.96,1.01,3.19,1.01,.56,0,1-.45,1-1V6.5h10.81c.28,0,.5,.22,.5,.5V25.84c-7.04-1.98-13.63,4.65-11.67,11.66H7Z"/><path d="M16.58 32.58h-6.38c-.55 0-1 .45-1 1v1.46c0 .55.45 1 1 1h6.38c.55 0 1-.45 1-1v-1.46c0-.55-.45-1-1-1zm0 2.46h-6.38v-1.46h6.38v1.46zM37.02 30.77c-3.98-1.9-8.15 2.25-6.25 6.25l.3.64 6.58-6.58-.64-.3zm-5.6 5.13c-.72-2.66 1.81-5.2 4.48-4.48l-4.48 4.48z"/><path d="M35,27.5c-4.14,0-7.5,3.36-7.5,7.5s3.36,7.5,7.5,7.5,7.5-3.36,7.5-7.5-3.36-7.5-7.5-7.5Zm0,14c-3.58,0-6.5-2.92-6.5-6.5s2.92-6.5,6.5-6.5,6.5,2.92,6.5,6.5-2.92,6.5-6.5,6.5Z"/><path d="M39.23 32.98l-.3-.64-6.58 6.58c.81.39 1.51.77 2.68.77 3.28 0 5.75-3.48 4.21-6.72zm-5.13 5.6l4.48-4.48c.72 2.67-1.82 5.2-4.48 4.48zM8 10.5c-.28 0-.5.22-.5.5v4c0 .28.22.5.5.5s.5-.22.5-.5v-4c0-.28-.22-.5-.5-.5zM8 7.5c-.28 0-.5.22-.5.5v1c0 .28.22.5.5.5s.5-.22.5-.5v-1c0-.28-.22-.5-.5-.5z"/></svg>