<svg width="24" height="24" viewBox="0 0 24 24" fill="none" xmlns="http://www.w3.org/2000/svg">
    <path fill-rule="evenodd" clip-rule="evenodd" d="M10 3.15C9.8067 3.15 9.65 3.3067 9.65 3.5C9.65 3.6933 9.8067 3.85 10 3.85H14C14.1933 3.85 14.35 3.6933 14.35 3.5C14.35 3.3067 14.1933 3.15 14 3.15H10ZM4 6.33373C4 6.05759 4.22386 5.83373 4.5 5.83373H19.5C19.7761 5.83373 20 6.05759 20 6.33373C20 6.60987 19.7761 6.83373 19.5 6.83373H18.5V18.3775C18.5 19.8596 17.2161 21.0028 15.731 21.0028H8.231C6.73342 21.0028 5.5 19.8488 5.5 18.3775V6.83373H4.5C4.22386 6.83373 4 6.60987 4 6.33373ZM6.5 6.83373H17.5V18.3775C17.5 19.2436 16.7299 20.0028 15.731 20.0028H8.231C7.24258 20.0028 6.5 19.2544 6.5 18.3775V6.83373ZM14 9.76218C14.1933 9.76218 14.35 9.91888 14.35 10.1122V16.7244C14.35 16.9177 14.1933 17.0744 14 17.0744C13.8067 17.0744 13.65 16.9177 13.65 16.7244V10.1122C13.65 9.91888 13.8067 9.76218 14 9.76218ZM10.35 10.1122C10.35 9.91888 10.1933 9.76218 10 9.76218C9.8067 9.76218 9.65 9.91888 9.65 10.1122V16.7244C9.65 16.9177 9.8067 17.0744 10 17.0744C10.1933 17.0744 10.35 16.9177 10.35 16.7244V10.1122Z" />
</svg>
