<svg width="24" height="24" viewBox="0 0 24 24" fill="none" xmlns="http://www.w3.org/2000/svg">
    <path fill-rule="evenodd" clip-rule="evenodd" d="M7.92823 5.33579C7.14719 4.55474 5.88086 4.55474 5.09981 5.33579C4.31876 6.11683 4.31876 7.38316 5.09981 8.16421C5.88086 8.94526 7.14719 8.94526 7.92824 8.16421C8.70928 7.38316 8.70928 6.11684 7.92824 5.33579L8.28179 4.98223L7.92823 5.33579ZM4.39271 4.62868C5.56428 3.45711 7.46377 3.45711 8.63534 4.62868C9.80692 5.80025 9.80692 7.69974 8.63534 8.87132C7.46377 10.0429 5.56428 10.0429 4.39271 8.87132C3.22113 7.69974 3.22113 5.80025 4.39271 4.62868ZM18.9003 5.33579C18.1192 4.55474 16.8529 4.55474 16.0718 5.33579C15.2908 6.11683 15.2908 7.38316 16.0718 8.16421C16.8529 8.94526 18.1192 8.94526 18.9003 8.16421C19.6813 7.38316 19.6813 6.11684 18.9003 5.33579ZM15.3647 4.62868C16.5363 3.45711 18.4358 3.45711 19.6074 4.62868C20.7789 5.80025 20.7789 7.69974 19.6074 8.87132C18.4358 10.0429 16.5363 10.0429 15.3647 8.87132C14.1932 7.69974 14.1932 5.80025 15.3647 4.62868ZM13.4143 11.3358C12.6332 10.5547 11.3669 10.5547 10.5858 11.3358C9.80479 12.1168 9.80479 13.3831 10.5858 14.1642C11.3669 14.9452 12.6332 14.9452 13.4143 14.1642C14.1953 13.3831 14.1953 12.1168 13.4143 11.3358ZM9.87874 10.6286C11.0503 9.45708 12.9498 9.45708 14.1214 10.6286C15.2929 11.8002 15.2929 13.6997 14.1214 14.8713C12.9498 16.0429 11.0503 16.0429 9.87874 14.8713C8.70716 13.6997 8.70716 11.8002 9.87874 10.6286ZM6.00002 12.75C4.57451 12.75 3.2191 13.248 2.31237 13.9734C2.09674 14.1459 1.78209 14.111 1.60958 13.8954C1.43708 13.6797 1.47204 13.3651 1.68767 13.1926C2.78093 12.318 4.35952 11.75 6.00002 11.75C6.27616 11.75 6.50002 11.9739 6.50002 12.25C6.50002 12.5261 6.27616 12.75 6.00002 12.75ZM17.5 12.25C17.5 11.9739 17.7239 11.75 18 11.75C19.6405 11.75 21.2191 12.318 22.3124 13.1926C22.528 13.3651 22.563 13.6797 22.3905 13.8954C22.2179 14.111 21.9033 14.1459 21.6877 13.9734C20.7809 13.248 19.4255 12.75 18 12.75C17.7239 12.75 17.5 12.5261 17.5 12.25ZM7.10313 19.3545C8.35896 18.3832 10.1415 17.75 12 17.75C13.8586 17.75 15.6411 18.3832 16.8969 19.3545C17.1153 19.5234 17.1555 19.8375 16.9865 20.0559C16.8176 20.2743 16.5036 20.3145 16.2851 20.1455C15.211 19.3148 13.6455 18.75 12 18.75C10.3546 18.75 8.78908 19.3148 7.71491 20.1455C7.49647 20.3145 7.18244 20.2743 7.0135 20.0559C6.84457 19.8375 6.88469 19.5234 7.10313 19.3545Z"/>
</svg>
